Dactyl Mono.sfdir
StartChar: !
Encoding: 33 33 0
Width: 133
InSpiro: 1
        Flags: H
        LayerCount: 2
        Back
        SplineSet
-2147483618 634 m 0
-2147483613 634 l 0
-2147483613 210 l 0
-2147483618 210 l 0
-2147483618 634 l 0
Z
-2147483616 25 m 0
-2147483614 24 -2147483612 25 -2147483611 27 c 0
-2147483609 28 -2147483608 30 -2147483609 32 c 0
-2147483609 33 -2147483609 35 -2147483611 36 c 0
-2147483612 38 -2147483614 38 -2147483616 39 c 0
-2147483617 39 -2147483619 38 -2147483620 36 c 0
-2147483622 35 -2147483622 33 -2147483623 32 c 0
-2147483623 30 -2147483622 28 -2147483620 27 c 0
-2147483619 25 -2147483617 24 -2147483616 25 c 0
Z
Spiro
-2147483618 634 v
-2147483613 634 v
-2147483613 210 v
-2147483618 210 v
-2147483616 25 c
-2147483609 32 c
-2147483616 39 c
-2147483623 32 c
0 0 z
EndSpiro
EndSplineSet
        Fore
        SplineSet
-2147483648 660 m 0
-2147483586 660 l 0
-2147483586 180 l 0
-2147483648 180 l 0
-2147483648 660 l 0
Z
-2147483618 -5 m 0
-2147483609 -1 -2147483601 1 -2147483594 7 c 0
-2147483591 10 -2147483588 13 -2147483586 17 c 0
-2147483584 21 -2147483583 25 -2147483583 30 c 0
-2147483583 34 -2147483584 38 -2147483586 42 c 0
-2147483588 46 -2147483591 49 -2147483594 52 c 0
-2147483601 58 -2147483609 61 -2147483618 65 c 0
-2147483648 176988066 -2147483648 530943308 -2147483648 952380333 c 0
-2147483648 1373817918 -2147483648 1857259516 -2147483648 -2147483648 c 0
-2147483648 -2147483648 -2147483648 -2147483648 -2147483648 -2147483648 c 0
-1907627746 -2147483648 -1454281780 -2147483648 -999597447 -2147483648 c 0
-544865918 -2147483648 -89897876 -2147483648 313135733 -2147483648 c 0
716170124 -2147483648 1067435634 -2147483648 1344682567 -2147483648 c 0
1899196304 1836186248 2147320310 909703837 2147483643 30 c 0
-2147483648 -909566103 1899564325 -1835952924 1345264305 -2147483648 c 0
1068111181 -2147483648 716937162 -2147483648 313982503 -2147483648 c 0
-88972765 -2147483648 -543874652 -2147483648 -998562585 -2147483648 c 0
-1453282324 -2147483648 -1906696799 -2147483648 -2147483648 -2147483648 c 0
-2147483648 -2147483648 -2147483648 -2147483648 -2147483648 -2147483648 c 0
-2147483648 -1857754328 -2147483648 -1374258989 -2147483648 -952730771 c 0
-2147483648 -531201778 -2147483648 -177118106 -2147483618 -5 c 0
Z
Spiro
-2147483648 660 v
-2147483586 660 v
-2147483586 180 v
-2147483648 180 v
-2147483618 -5 c
-2147483583 30 c
-2147483618 65 c
2147483643 30 c
0 0 z
EndSpiro
EndSplineSet
        EndChar
StartChar: "
Encoding: 34 34 0
Width: 373
InSpiro: 1
        Flags: H
        LayerCount: 2
        Back
        SplineSet
30 634 m 0
34 634 l 0
34 480 l 0
30 480 l 0
30 634 l 0
Z
269 634 m 0
274 634 l 0
274 480 l 0
269 480 l 0
269 634 l 0
Z
Spiro
30 634 v
34 634 v
34 480 v
30 480 v
269 634 v
274 634 v
274 480 v
269 480 v
0 0 z
EndSpiro
EndSplineSet
        Fore
        SplineSet
-1 660 m 0
61 660 l 0
61 450 l 0
-1 450 l 0
-1 660 l 0
Z
238 660 m 0
301 660 l 0
301 450 l 0
238 450 l 0
238 660 l 0
Z
Spiro
-1 660 v
61 660 v
61 450 v
-1 450 v
238 660 v
301 660 v
301 450 v
238 450 v
0 0 z
EndSpiro
EndSplineSet
        EndChar
StartChar: $
Encoding: 36 36 0
Width: 373
InSpiro: 1
        Flags: H
        LayerCount: 2
        Back
        SplineSet
274 530 m 0
269 530 l 0
267 558 254 586 232 605 c 0
210 624 180 633 152 630 c 0
117 626 87 605 66 577 c 0
46 549 36 515 34 481 c 0
32 459 33 437 39 416 c 0
44 396 56 376 73 363 c 0
95 344 124 338 152 332 c 0
181 326 210 320 233 303 c 0
250 289 262 268 268 247 c 0
275 226 276 203 274 181 c 0
270 146 260 111 239 83 c 0
218 55 186 33 152 30 c 0
122 26 91 36 68 55 c 0
45 74 31 104 30 134 c 0
34 134 l 0
34 105 48 76 70 57 c 0
92 38 122 29 151 33 c 0
185 36 215 57 236 85 c 0
256 113 266 147 269 182 c 0
270 203 269 225 264 246 c 0
258 266 246 286 230 300 c 0
207 318 178 324 150 330 c 0
121 335 92 342 70 360 c 0
52 373 40 394 34 415 c 0
28 437 27 459 30 482 c 0
33 516 43 551 64 579 c 0
85 607 116 628 151 633 c 0
180 636 211 627 234 608 c 0
257 589 272 559 274 530 c 0
Z
149 636 m 0
154 636 l 0
154 28 l 0
149 28 l 0
149 636 l 0
Z
Spiro
274 530 v
269 530 v
152 630 c
34 481 c
73 363 c
233 303 c
274 181 c
152 30 c
30 134 v
34 134 v
151 33 c
269 182 c
230 300 c
70 360 c
30 482 c
151 633 c
149 636 v
154 636 v
154 28 v
149 28 v
0 0 z
EndSpiro
EndSplineSet
        Fore
        SplineSet
301 500 m 0
238 500 l 0
244 524 238 552 221 572 c 0
205 592 178 602 153 600 c 0
139 598 125 593 114 585 c 0
102 577 92 567 85 556 c 0
69 532 62 504 61 477 c 0
59 460 60 443 64 426 c 0
69 410 77 394 89 383 c 0
99 372 111 365 125 360 c 0
138 355 152 351 167 349 c 0
195 343 224 338 249 323 c 0
271 308 287 283 295 257 c 0
303 231 304 204 301 177 c 0
296 135 282 95 256 62 c 0
231 29 194 5 153 0 c 0
110 -5 65 10 35 41 c 0
5 72 -8 117 -1 160 c 0
61 160 l 0
53 135 59 106 76 86 c 0
93 67 120 56 146 59 c 0
159 60 173 65 184 73 c 0
196 81 206 91 213 102 c 0
229 126 236 154 238 182 c 0
239 198 238 215 234 232 c 0
229 248 221 264 210 276 c 0
199 286 187 293 173 298 c 0
160 303 145 307 131 309 c 0
103 315 74 320 50 336 c 0
27 351 11 375 4 401 c 0
-3 427 -4 455 -1 482 c 0
3 522 17 563 42 596 c 0
68 628 105 653 146 659 c 0
188 664 233 649 263 618 c 0
293 587 308 542 301 500 c 0
Z
118 690 m 0
181 690 l 0
181 -30 l 0
150 -30 l 0
118 -30 l 0
118 690 l 0
Z
Spiro
301 500 v
238 500 v
153 600 c
61 477 c
89 383 c
249 323 c
301 177 c
153 0 c
-1 160 v
61 160 v
146 59 c
238 182 c
210 276 c
50 336 c
-1 482 c
146 659 c
118 690 v
181 690 v
181 -30 v
150 -30 c
118 -30 v
0 0 z
EndSpiro
EndSplineSet
        EndChar
StartChar: %
Encoding: 37 37 0
Width: 373
InSpiro: 1
        Flags: H
        LayerCount: 2
        Back
        SplineSet
269 634 m 0
274 634 l 0
34 30 l 0
30 30 l 0
269 634 l 0
Z
30 510 m 0
19 519 12 532 9 546 c 0
6 560 7 575 13 588 c 0
18 601 28 613 39 620 c 0
51 628 65 633 80 633 c 0
94 632 108 628 119 620 c 0
131 612 140 601 145 587 c 0
151 574 152 560 149 546 c 0
146 532 139 519 129 510 c 0
115 497 97 490 79 490 c 0
61 490 43 497 30 510 c 0
Z
126 513 m 0
135 522 142 534 145 547 c 0
148 560 147 574 142 587 c 0
137 600 128 611 117 618 c 0
106 626 92 630 79 630 c 0
65 629 52 625 41 618 c 0
30 610 21 599 16 587 c 0
11 574 10 560 13 547 c 0
16 534 23 522 33 513 c 0
45 501 62 494 79 494 c 0
96 494 113 501 126 513 c 0
Z
273 153 m 0
283 143 290 130 293 116 c 0
296 102 295 87 289 74 c 0
284 61 274 49 263 42 c 0
251 34 237 29 223 30 c 0
208 30 194 34 183 42 c 0
171 50 162 61 157 75 c 0
151 88 150 102 153 116 c 0
156 130 163 143 174 153 c 0
187 165 205 172 223 172 c 0
241 172 259 165 273 153 c 0
Z
177 150 m 0
167 140 160 128 157 115 c 0
154 102 155 88 160 75 c 0
165 62 174 51 185 44 c 0
196 36 210 32 224 33 c 0
237 33 250 37 261 44 c 0
272 52 281 63 286 75 c 0
291 88 292 102 289 115 c 0
286 128 279 140 270 150 c 0
257 161 240 168 223 168 c 0
206 168 189 161 177 150 c 0
Z
Spiro
269 634 v
274 634 v
34 30 v
30 30 v
30 510 c
80 633 c
129 510 c
126 513 c
79 630 c
33 513 c
273 153 c
223 30 c
174 153 c
177 150 c
224 33 c
270 150 c
0 0 z
EndSpiro
EndSplineSet
        Fore
        SplineSet
238 660 m 0
301 660 l 0
61 0 l 0
-1 0 l 0
238 660 l 0
Z
8 488 m 0
-6 501 -16 519 -20 539 c 0
-24 558 -22 578 -14 597 c 0
-7 615 5 631 22 642 c 0
38 653 58 659 78 659 c 0
97 658 117 652 133 641 c 0
149 630 162 614 169 596 c 0
177 578 179 558 174 538 c 0
170 519 161 501 147 488 c 0
128 470 103 459 77 459 c 0
51 459 26 470 8 488 c 0
Z
104 531 m 0
109 536 114 543 116 551 c 0
117 559 117 567 114 574 c 0
111 582 106 588 99 593 c 0
92 597 84 600 77 600 c 0
69 599 61 597 54 592 c 0
48 588 43 581 40 574 c 0
37 566 37 558 39 551 c 0
40 543 45 536 51 531 c 0
58 524 67 520 77 520 c 0
87 520 96 524 104 531 c 0
Z
291 171 m 0
305 157 315 139 319 119 c 0
323 100 321 80 313 61 c 0
306 43 293 27 276 16 c 0
260 5 240 0 221 0 c 0
201 0 181 6 165 17 c 0
149 28 136 44 129 62 c 0
121 80 119 100 124 120 c 0
128 139 137 157 152 171 c 0
170 188 195 199 221 199 c 0
247 199 272 188 291 171 c 0
Z
195 128 m 0
189 122 184 115 182 107 c 0
181 99 181 91 184 84 c 0
187 76 192 70 199 65 c 0
206 61 214 58 222 59 c 0
229 59 237 61 244 66 c 0
250 70 255 77 258 84 c 0
261 92 261 100 259 107 c 0
258 115 253 122 248 128 c 0
240 134 231 138 221 138 c 0
211 138 202 134 195 128 c 0
Z
Spiro
238 660 v
301 660 v
61 0 v
-1 0 v
8 488 c
78 659 c
147 488 c
104 531 c
77 600 c
51 531 c
291 171 c
221 0 c
152 171 c
195 128 c
222 59 c
248 128 c
0 0 z
EndSpiro
EndSplineSet
        EndChar
StartChar: &
Encoding: 38 38 0
Width: 373
InSpiro: 1
        Flags: H
        LayerCount: 2
        Back
        SplineSet
274 30 m 0
269 30 l 0
150 180 l 0
115 223 82 268 61 319 c 0
40 370 30 425 30 481 c 0
29 519 33 559 53 592 c 0
63 608 78 622 95 629 c 0
113 637 133 639 152 633 c 0
165 628 177 618 186 606 c 0
194 595 200 581 202 566 c 0
208 538 202 508 193 481 c 0
175 426 145 376 113 330 c 0
96 306 79 284 64 259 c 0
50 235 38 209 34 181 c 0
29 151 33 119 47 93 c 0
60 66 83 43 112 33 c 0
145 19 185 23 216 43 c 0
246 63 266 97 269 134 c 0
274 134 l 0
271 96 250 60 218 40 c 0
187 20 145 16 111 30 c 0
82 41 58 63 43 91 c 0
29 119 25 151 30 182 c 0
34 210 46 237 61 261 c 0
75 286 93 309 110 333 c 0
142 379 172 428 190 482 c 0
199 508 205 537 200 565 c 0
197 579 192 593 184 604 c 0
175 615 164 625 151 630 c 0
133 636 113 634 96 626 c 0
79 618 65 605 56 589 c 0
36 558 33 519 34 482 c 0
35 427 44 372 65 321 c 0
86 270 118 226 153 183 c 0
274 30 l 0
Z
Spiro
274 30 v
269 30 v
150 180 ]
30 481 c
152 633 c
193 481 c
113 330 c
34 181 c
112 33 c
269 134 v
274 134 v
111 30 c
30 182 c
110 333 c
190 482 c
151 630 c
34 482 c
153 183 [
0 0 z
EndSpiro
EndSplineSet
        Fore
        SplineSet
301 0 m 0
238 0 l 0
125 161 l 0
91 208 59 256 36 310 c 0
13 363 0 421 -1 479 c 0
-1 526 6 575 35 613 c 0
49 632 68 647 90 656 c 0
112 664 137 666 160 658 c 0
177 651 192 640 203 626 c 0
214 611 222 594 226 577 c 0
234 542 229 504 219 470 c 0
201 412 170 360 135 312 c 0
119 290 103 270 89 247 c 0
75 225 64 200 61 175 c 0
57 151 60 126 70 105 c 0
81 83 98 65 121 57 c 0
135 51 152 49 168 51 c 0
184 54 199 61 211 72 c 0
223 83 232 97 237 112 c 0
241 127 242 144 238 160 c 0
301 160 l 0
304 134 300 108 290 84 c 0
280 60 264 39 244 23 c 0
223 7 199 -2 173 -6 c 0
148 -10 122 -7 98 2 c 0
63 15 33 42 16 75 c 0
-1 108 -7 147 -1 184 c 0
4 214 16 243 32 269 c 0
48 296 66 321 84 347 c 0
114 391 140 438 160 489 c 0
167 508 173 529 172 550 c 0
171 561 168 571 162 580 c 0
156 589 148 597 139 601 c 0
125 606 109 604 96 597 c 0
83 591 73 579 67 566 c 0
61 553 58 538 57 523 c 0
57 509 58 494 61 480 c 0
68 429 80 379 100 332 c 0
119 284 146 241 174 198 c 0
301 0 l 0
Z
Spiro
301 0 v
238 0 v
125 161 ]
-1 479 c
160 658 c
219 470 c
135 312 c
61 175 c
121 57 c
238 160 v
301 160 v
98 2 c
-1 184 c
84 347 c
160 489 c
139 601 c
61 480 c
174 198 [
0 0 z
EndSpiro
EndSplineSet
        EndChar
StartChar: (
Encoding: 40 40 0
Width: 373
InSpiro: 1
        Flags: H
        LayerCount: 2
        Back
        SplineSet
274 636 m 0
274 632 l 0
206 616 144 578 101 524 c 0
58 470 33 401 34 332 c 0
33 262 58 193 101 139 c 0
144 85 206 47 274 32 c 0
274 28 l 0
205 43 142 82 98 137 c 0
54 191 29 261 30 332 c 0
29 402 54 472 98 526 c 0
142 581 205 620 274 636 c 0
Z
Spiro
274 636 v
274 632 v
34 332 c
274 32 v
274 28 v
30 332 c
0 0 z
EndSpiro
EndSplineSet
        Fore
        SplineSet
301 690 m 0
301 630 l 0
233 614 171 576 128 522 c 0
85 468 60 399 61 330 c 0
60 260 85 191 128 137 c 0
171 83 233 45 301 30 c 0
301 -30 l 0
217 -15 139 29 84 95 c 0
29 160 0 244 -1 330 c 0
0 415 29 499 84 564 c 0
139 630 217 675 301 690 c 0
Z
Spiro
301 690 v
301 630 v
61 330 c
301 30 v
301 -30 v
-1 330 c
0 0 z
EndSpiro
EndSplineSet
        EndChar
StartChar: *
Encoding: 42 42 0
Width: 373
InSpiro: 1
        Flags: H
        LayerCount: 2
        Back
        SplineSet
30 430 m 0
30 434 l 0
274 434 l 0
274 430 l 0
30 430 l 0
Z
89 563 m 0
94 563 l 0
226 301 l 0
221 301 l 0
89 563 l 0
Z
221 563 m 0
226 563 l 0
94 301 l 0
89 301 l 0
221 563 l 0
Z
Spiro
30 430 v
30 434 v
274 434 v
274 430 v
89 563 v
94 563 v
226 301 v
221 301 v
221 563 v
226 563 v
94 301 v
89 301 v
0 0 z
EndSpiro
EndSplineSet
        Fore
        SplineSet
-1 400 m 0
-1 460 l 0
301 460 l 0
301 400 l 0
-1 400 l 0
Z
58 589 m 0
121 589 l 0
253 271 l 0
190 271 l 0
58 589 l 0
Z
190 589 m 0
253 589 l 0
121 271 l 0
58 271 l 0
190 589 l 0
Z
Spiro
-1 400 v
-1 460 v
301 460 v
301 400 v
58 589 v
121 589 v
253 271 v
190 271 v
190 589 v
253 589 v
121 271 v
58 271 v
0 0 z
EndSpiro
EndSplineSet
        EndChar
StartChar: +
Encoding: 43 43 0
Width: 373
InSpiro: 1
        Flags: H
        LayerCount: 2
        Back
        SplineSet
30 330 m 0
30 334 l 0
274 334 l 0
274 330 l 0
30 330 l 0
Z
149 484 m 0
154 484 l 0
154 180 l 0
149 180 l 0
149 484 l 0
Z
Spiro
30 330 v
30 334 v
274 334 v
274 330 v
149 484 v
154 484 v
154 180 v
149 180 v
0 0 z
EndSpiro
EndSplineSet
        Fore
        SplineSet
-1 300 m 0
-1 360 l 0
301 360 l 0
301 300 l 0
-1 300 l 0
Z
118 510 m 0
181 510 l 0
181 150 l 0
150 150 l 0
118 150 l 0
118 510 l 0
Z
Spiro
-1 300 v
-1 360 v
301 360 v
301 300 v
118 510 v
181 510 v
181 150 v
150 150 c
118 150 v
0 0 z
EndSpiro
EndSplineSet
        EndChar
StartChar: 1
Encoding: 49 49 0
Width: 373
InSpiro: 1
        Flags: H
        LayerCount: 2
        Back
        SplineSet
34 510 m 0
32 510 l 0
30 510 l 0
154 634 l 0
154 634 l 0
154 30 l 0
149 30 l 0
149 627 l 0
34 510 l 0
Z
30 30 m 0
30 34 l 0
274 34 l 0
274 30 l 0
30 30 l 0
Z
Spiro
34 510 v
32 510 c
30 510 v
154 634 v
154 634 v
154 30 v
149 30 v
149 627 v
30 30 v
30 34 v
274 34 v
274 30 v
0 0 z
EndSpiro
EndSplineSet
        Fore
        SplineSet
61 480 m 0
30 480 l 0
-1 480 l 0
181 660 l 0
181 660 l 0
181 0 l 0
118 0 l 0
119 557 l 0
61 480 l 0
Z
-1 0 m 0
-1 60 l 0
301 60 l 0
301 0 l 0
-1 0 l 0
Z
Spiro
61 480 v
30 480 c
-1 480 v
181 660 v
181 660 v
181 0 v
118 0 v
119 557 v
-1 0 v
-1 60 v
301 60 v
301 0 v
0 0 z
EndSpiro
EndSplineSet
        EndChar
StartChar: 6
Encoding: 54 54 0
Width: 373
InSpiro: 1
        Flags: H
        LayerCount: 2
        Back
        SplineSet
274 530 m 0
269 530 l 0
268 559 255 587 233 606 c 0
211 625 180 634 152 630 c 0
122 625 96 608 77 586 c 0
59 563 47 535 41 506 c 0
28 449 36 389 34 331 c 0
31 270 18 209 30 149 c 0
36 119 49 90 70 68 c 0
90 46 120 31 151 33 c 0
172 33 193 42 210 55 c 0
226 68 240 86 249 105 c 0
267 144 270 188 269 231 c 0
267 272 263 315 245 353 c 0
235 372 223 389 207 403 c 0
191 417 171 426 151 430 c 0
122 434 91 425 69 406 c 0
47 387 34 359 34 330 c 0
30 330 l 0
30 360 44 389 67 409 c 0
90 428 122 437 152 433 c 0
173 429 192 419 209 406 c 0
225 392 238 375 248 356 c 0
267 318 272 274 274 232 c 0
275 188 272 142 253 103 c 0
243 83 230 65 212 52 c 0
195 39 173 30 152 30 c 0
121 29 91 43 69 65 c 0
48 88 35 117 28 147 c 0
15 207 27 270 30 332 c 0
32 391 25 451 38 508 c 0
45 537 57 565 76 588 c 0
95 611 121 628 151 633 c 0
180 637 212 629 236 609 c 0
259 590 273 560 274 530 c 0
Z
Spiro
274 530 v
269 530 v
152 630 c
34 331 c
151 33 c
269 231 c
151 430 c
34 330 v
30 330 v
152 433 c
274 232 c
152 30 c
30 332 c
151 633 c
0 0 z
EndSpiro
EndSplineSet
        Fore
        SplineSet
301 500 m 0
238 500 l 0
244 524 238 552 221 571 c 0
205 591 179 601 154 600 c 0
127 597 103 582 86 561 c 0
70 540 61 513 58 487 c 0
51 434 63 381 61 328 c 0
58 273 41 220 47 165 c 0
49 138 58 111 76 91 c 0
85 80 96 72 108 66 c 0
120 60 134 57 148 59 c 0
165 60 182 68 195 80 c 0
209 92 218 107 225 123 c 0
238 156 238 193 238 229 c 0
237 264 235 300 222 333 c 0
215 349 205 365 192 377 c 0
179 389 162 397 145 400 c 0
132 401 118 400 106 395 c 0
94 390 83 383 75 373 c 0
67 363 61 351 58 338 c 0
56 325 57 312 61 300 c 0
-1 300 l 0
-9 342 3 389 34 420 c 0
64 451 111 466 154 459 c 0
178 454 200 443 220 428 c 0
239 412 254 393 266 371 c 0
290 328 299 279 301 230 c 0
302 178 297 125 272 80 c 0
260 58 243 38 222 23 c 0
201 9 176 0 151 0 c 0
116 0 83 15 58 38 c 0
33 62 17 93 7 126 c 0
-11 192 -3 262 -1 331 c 0
1 395 0 461 17 524 c 0
27 555 41 584 63 609 c 0
84 633 113 652 145 659 c 0
166 663 189 662 210 656 c 0
231 649 251 638 266 622 c 0
282 606 293 586 299 565 c 0
305 544 306 521 301 500 c 0
Z
Spiro
301 500 v
238 500 v
154 600 c
61 328 c
148 59 c
238 229 c
145 400 c
61 300 v
-1 300 v
154 459 c
301 230 c
151 0 c
-1 331 c
145 659 c
0 0 z
EndSpiro
EndSplineSet
        EndChar
StartChar: 9
Encoding: 57 57 0
Width: 373
InSpiro: 1
        Flags: H
        LayerCount: 2
        Back
        SplineSet
154 30 m 0
149 30 l 0
213 118 254 223 269 332 c 0
275 381 276 431 269 481 c 0
264 515 255 549 235 577 c 0
226 591 213 604 199 613 c 0
184 623 168 629 151 630 c 0
133 630 115 626 99 618 c 0
84 609 70 597 60 582 c 0
40 554 32 517 34 482 c 0
35 447 45 412 65 384 c 0
85 356 117 336 152 333 c 0
180 330 210 339 232 358 c 0
253 377 267 405 269 434 c 0
274 434 l 0
272 404 257 375 234 355 c 0
211 336 180 326 151 330 c 0
116 333 83 354 62 382 c 0
41 410 31 445 30 481 c 0
28 517 36 555 58 585 c 0
68 600 82 612 99 621 c 0
115 629 133 634 152 633 c 0
169 631 186 625 201 616 c 0
216 607 228 594 238 580 c 0
258 551 268 516 274 482 c 0
281 432 280 381 274 331 c 0
259 222 217 118 154 30 c 0
Z
Spiro
154 30 v
149 30 v
269 332 c
269 481 c
151 630 c
34 482 c
152 333 c
269 434 v
274 434 v
151 330 c
30 481 c
152 633 c
274 482 c
274 331 c
0 0 z
EndSpiro
EndSplineSet
        Fore
        SplineSet
181 0 m 0
118 0 l 0
184 99 225 214 238 333 c 0
242 380 243 427 238 475 c 0
234 502 229 531 215 555 c 0
208 567 198 578 187 586 c 0
175 594 162 599 148 600 c 0
134 600 120 596 108 589 c 0
96 582 86 572 79 560 c 0
64 537 59 508 61 481 c 0
62 453 69 425 84 402 c 0
92 390 102 380 114 372 c 0
125 365 139 360 153 359 c 0
178 356 205 367 222 387 c 0
238 406 244 435 238 460 c 0
301 460 l 0
306 417 292 372 262 342 c 0
232 311 188 295 146 300 c 0
104 304 65 328 39 361 c 0
14 394 0 436 -1 478 c 0
-2 522 8 568 35 603 c 0
49 620 66 635 86 645 c 0
106 655 128 660 151 659 c 0
171 657 191 650 209 640 c 0
227 629 243 615 255 598 c 0
280 565 294 524 301 484 c 0
309 431 307 378 301 326 c 0
285 210 244 98 181 0 c 0
Z
Spiro
181 0 v
118 0 v
238 333 c
238 475 c
148 600 c
61 481 c
153 359 c
238 460 v
301 460 v
146 300 c
-1 478 c
151 659 c
301 484 c
301 326 c
0 0 z
EndSpiro
EndSplineSet
        EndChar
StartChar: E
Encoding: 69 69 0
Width: 373
InSpiro: 1
        Flags: H
        LayerCount: 2
        Back
        SplineSet
274 634 m 0
274 630 l 0
34 630 l 0
34 34 l 0
274 34 l 0
274 30 l 0
30 30 l 0
30 30 l 0
30 634 l 0
30 634 l 0
274 634 l 0
Z
30 330 m 0
30 334 l 0
274 334 l 0
274 330 l 0
30 330 l 0
Z
Spiro
274 634 v
274 630 v
34 630 v
34 34 v
274 34 v
274 30 v
30 30 v
30 30 v
30 634 v
30 634 v
30 330 v
30 334 v
274 334 v
274 330 v
0 0 z
EndSpiro
EndSplineSet
        Fore
        SplineSet
301 660 m 0
301 600 l 0
61 600 l 0
61 60 l 0
301 60 l 0
301 0 l 0
-1 0 l 0
-1 0 l 0
-1 660 l 0
-1 660 l 0
301 660 l 0
Z
-1 300 m 0
-1 360 l 0
301 360 l 0
301 300 l 0
-1 300 l 0
Z
Spiro
301 660 v
301 600 v
61 600 v
61 60 v
301 60 v
301 0 v
-1 0 v
-1 0 v
-1 660 v
-1 660 v
-1 300 v
-1 360 v
301 360 v
301 300 v
0 0 z
EndSpiro
EndSplineSet
        EndChar
StartChar: H
Encoding: 72 72 0
Width: 373
InSpiro: 1
        Flags: H
        LayerCount: 2
        Back
        SplineSet
34 30 m 0
30 30 l 0
30 634 l 0
34 634 l 0
34 30 l 0
Z
30 330 m 0
30 334 l 0
274 334 l 0
274 330 l 0
30 330 l 0
Z
274 30 m 0
269 30 l 0
269 634 l 0
274 634 l 0
274 30 l 0
Z
Spiro
34 30 v
30 30 v
30 634 v
34 634 v
30 330 v
30 334 v
274 334 v
274 330 v
274 30 v
269 30 v
269 634 v
274 634 v
0 0 z
EndSpiro
EndSplineSet
        Fore
        SplineSet
61 0 m 0
-1 0 l 0
-1 660 l 0
61 660 l 0
61 0 l 0
Z
-1 300 m 0
-1 360 l 0
301 360 l 0
301 300 l 0
-1 300 l 0
Z
301 0 m 0
238 0 l 0
238 660 l 0
301 660 l 0
301 0 l 0
Z
Spiro
61 0 v
-1 0 v
-1 660 v
61 660 v
-1 300 v
-1 360 v
301 360 v
301 300 v
301 0 v
238 0 v
238 660 v
301 660 v
0 0 z
EndSpiro
EndSplineSet
        EndChar
StartChar: K
Encoding: 75 75 0
Width: 373
InSpiro: 1
        Flags: H
        LayerCount: 2
        Back
        SplineSet
269 634 m 0
274 634 l 0
34 331 l 0
34 30 l 0
30 30 l 0
30 334 l 0
30 330 l 0
269 634 l 0
Z
30 634 m 0
34 634 l 0
34 332 l 0
274 30 l 0
269 30 l 0
30 334 l 0
30 330 l 0
30 634 l 0
Z
Spiro
269 634 v
274 634 v
34 331 v
34 30 v
30 30 v
30 334 v
30 330 v
30 634 v
34 634 v
34 332 v
274 30 v
269 30 v
30 334 v
30 330 v
0 0 z
EndSpiro
EndSplineSet
        Fore
        SplineSet
238 660 m 0
301 660 l 0
61 319 l 0
61 0 l 0
-1 0 l 0
-1 360 l 0
-1 300 l 0
238 660 l 0
Z
-1 660 m 0
61 660 l 0
61 340 l 0
301 0 l 0
238 0 l 0
-1 360 l 0
-1 300 l 0
-1 660 l 0
Z
Spiro
238 660 v
301 660 v
61 319 v
61 0 v
-1 0 v
-1 360 v
-1 300 v
-1 660 v
61 660 v
61 340 v
301 0 v
238 0 v
-1 360 v
-1 300 v
0 0 z
EndSpiro
EndSplineSet
        EndChar
StartChar: N
Encoding: 78 78 0
Width: 373
InSpiro: 1
        Flags: H
        LayerCount: 2
        Back
        SplineSet
34 30 m 0
30 30 l 0
30 634 l 0
34 634 l 0
269 42 l 0
269 634 l 0
274 634 l 0
274 30 l 0
269 30 l 0
34 621 l 0
34 30 l 0
Z
Spiro
34 30 v
30 30 v
30 634 v
34 634 v
269 42 v
269 634 v
274 634 v
274 30 v
269 30 v
34 621 v
0 0 z
EndSpiro
EndSplineSet
        Fore
        SplineSet
61 0 m 0
-1 0 l 0
-1 660 l 0
61 660 l 0
239 185 l 0
238 660 l 0
301 660 l 0
301 0 l 0
238 0 l 0
60 474 l 0
61 0 l 0
Z
Spiro
61 0 v
-1 0 v
-1 660 v
61 660 v
239 185 v
238 660 v
301 660 v
301 0 v
238 0 v
60 474 v
0 0 z
EndSpiro
EndSplineSet
        EndChar
StartChar: O
Encoding: 79 79 0
Width: 373
InSpiro: 1
        Flags: H
        LayerCount: 2
        Back
        SplineSet
34 331 m 0
34 271 28 211 40 153 c 0
45 124 56 95 74 72 c 0
84 61 95 51 108 44 c 0
121 37 136 33 151 33 c 0
165 32 180 37 193 44 c 0
206 51 218 60 227 72 c 0
246 95 257 124 262 153 c 0
273 211 268 271 269 331 c 0
269 390 273 450 262 509 c 0
257 538 246 567 227 590 c 0
218 601 206 611 193 618 c 0
180 625 165 630 151 630 c 0
136 629 121 625 108 618 c 0
95 611 83 601 74 590 c 0
55 566 45 538 39 508 c 0
28 450 34 390 34 331 c 0
Z
152 633 m 0
167 632 181 628 195 621 c 0
208 614 220 604 229 593 c 0
249 570 260 541 266 511 c 0
278 453 273 392 274 332 c 0
274 271 278 210 266 151 c 0
260 122 249 93 230 69 c 0
220 58 208 48 195 41 c 0
182 34 167 30 152 30 c 0
136 29 121 34 108 41 c 0
95 48 83 58 74 69 c 0
54 92 43 122 37 151 c 0
25 210 30 271 30 332 c 0
30 392 25 452 37 511 c 0
43 541 54 570 74 593 c 0
83 604 95 614 108 621 c 0
122 628 136 632 152 633 c 0
Z
Spiro
34 331 o
151 33 c
269 331 o
151 630 c
152 633 c
274 332 o
152 30 c
30 332 o
0 0 z
EndSpiro
EndSplineSet
        Fore
        SplineSet
61 329 m 0
60 276 52 223 58 171 c 0
60 144 67 118 83 96 c 0
90 86 100 76 111 69 c 0
122 63 135 59 149 59 c 0
162 58 175 62 186 69 c 0
197 76 207 85 215 96 c 0
230 118 237 144 240 170 c 0
246 223 237 276 238 329 c 0
237 381 246 435 240 487 c 0
237 514 230 540 215 562 c 0
207 573 198 582 186 589 c 0
175 596 162 600 149 600 c 0
135 599 122 595 111 589 c 0
100 582 90 572 82 561 c 0
67 540 60 513 58 487 c 0
52 434 61 381 61 329 c 0
Z
150 659 m 0
166 658 183 654 198 647 c 0
213 640 226 629 238 617 c 0
261 592 275 561 284 529 c 0
302 464 300 396 301 330 c 0
301 262 302 194 284 130 c 0
275 97 261 66 238 41 c 0
227 29 213 19 198 11 c 0
183 4 166 0 150 0 c 0
133 0 116 4 101 11 c 0
86 19 73 29 61 41 c 0
38 66 24 97 15 129 c 0
-2 194 -1 262 -1 330 c 0
0 396 -2 464 15 529 c 0
24 561 38 592 61 617 c 0
73 629 86 640 101 647 c 0
116 654 133 658 150 659 c 0
Z
Spiro
61 329 o
149 59 c
238 329 o
149 600 c
150 659 c
301 330 o
150 0 c
-1 330 o
0 0 z
EndSpiro
EndSplineSet
        EndChar
StartChar: V
Encoding: 86 86 0
Width: 373
InSpiro: 1
        Flags: H
        LayerCount: 2
        Back
        SplineSet
30 634 m 0
34 634 l 0
152 42 l 0
269 634 l 0
274 634 l 0
154 30 l 0
149 30 l 0
30 634 l 0
Z
Spiro
30 634 v
34 634 v
152 42 v
269 634 v
274 634 v
154 30 v
149 30 v
0 0 z
EndSpiro
EndSplineSet
        Fore
        SplineSet
-1 660 m 0
61 660 l 0
150 182 l 0
238 660 l 0
301 660 l 0
181 0 l 0
118 0 l 0
-1 660 l 0
Z
Spiro
-1 660 v
61 660 v
150 182 v
238 660 v
301 660 v
181 0 v
118 0 v
0 0 z
EndSpiro
EndSplineSet
        EndChar
StartChar: Z
Encoding: 90 90 0
Width: 373
InSpiro: 1
        Flags: H
        LayerCount: 2
        Back
        SplineSet
30 630 m 0
30 634 l 0
274 634 l 0
274 634 l 0
35 34 l 0
274 34 l 0
274 30 l 0
30 30 l 0
30 30 l 0
268 630 l 0
30 630 l 0
Z
Spiro
30 630 v
30 634 v
274 634 v
274 634 v
35 34 v
274 34 v
274 30 v
30 30 v
30 30 v
268 630 v
0 0 z
EndSpiro
EndSplineSet
        Fore
        SplineSet
-1 600 m 0
-1 660 l 0
301 660 l 0
301 660 l 0
75 60 l 0
301 60 l 0
301 0 l 0
-1 0 l 0
-1 0 l 0
224 600 l 0
-1 600 l 0
Z
Spiro
-1 600 v
-1 660 v
301 660 v
301 660 v
75 60 v
301 60 v
301 0 v
-1 0 v
-1 0 v
224 600 v
0 0 z
EndSpiro
EndSplineSet
        EndChar
StartChar: e
Encoding: 101 101 0
Width: 373
InSpiro: 1
        Flags: H
        LayerCount: 2
        Back
        SplineSet
30 210 m 0
30 214 l 0
270 214 l 0
281 244 281 280 270 311 c 0
261 334 245 356 224 370 c 0
203 385 177 392 152 390 c 0
132 388 113 380 98 368 c 0
82 357 69 342 59 325 c 0
40 291 33 251 34 212 c 0
34 172 40 132 60 99 c 0
69 82 82 66 98 55 c 0
114 43 132 35 152 33 c 0
180 29 210 38 232 56 c 0
254 75 267 103 269 132 c 0
274 132 l 0
272 102 258 73 234 53 c 0
211 34 180 25 151 30 c 0
131 32 112 40 96 52 c 0
80 64 67 79 57 96 c 0
37 131 30 171 30 211 c 0
29 251 36 292 56 326 c 0
66 344 79 359 95 371 c 0
111 383 131 391 151 393 c 0
177 395 203 388 225 373 c 0
247 358 263 336 273 312 c 0
285 279 285 242 274 210 c 0
274 210 l 0
30 210 l 0
Z
Spiro
30 210 v
30 214 v
270 214 v
270 311 c
152 390 c
34 212 c
152 33 c
269 132 v
274 132 v
151 30 c
30 211 c
151 393 c
273 312 c
274 210 v
274 210 v
0 0 z
EndSpiro
EndSplineSet
        Fore
        SplineSet
22 180 m 0
22 240 l 0
248 240 l 0
250 259 247 280 240 299 c 0
232 316 221 332 206 343 c 0
190 354 171 361 153 360 c 0
136 358 121 352 108 342 c 0
95 332 85 319 78 304 c 0
63 275 60 242 61 210 c 0
61 177 64 144 79 115 c 0
86 100 96 87 109 77 c 0
122 67 137 60 154 59 c 0
174 56 195 63 211 76 c 0
226 89 236 109 238 130 c 0
301 130 l 0
299 91 281 54 252 30 c 0
222 5 182 -5 145 0 c 0
122 3 100 12 81 26 c 0
62 39 46 56 34 76 c 0
9 115 0 162 -1 209 c 0
-1 255 7 303 32 343 c 0
45 363 61 381 80 394 c 0
100 407 122 416 146 419 c 0
178 422 211 413 238 394 c 0
265 376 286 349 299 320 c 0
317 275 318 224 301 180 c 0
301 180 l 0
22 180 l 0
Z
Spiro
22 180 v
22 240 v
248 240 v
240 299 c
153 360 c
61 210 c
154 59 c
238 130 v
301 130 v
145 0 c
-1 209 c
146 419 c
299 320 c
301 180 v
301 180 v
0 0 z
EndSpiro
EndSplineSet
        EndChar
StartChar: f
Encoding: 102 102 0
Width: 373
InSpiro: 1
        Flags: H
        LayerCount: 2
        Back
        SplineSet
274 634 m 0
274 630 l 0
242 644 206 648 172 640 c 0
139 633 108 613 85 587 c 0
63 561 48 528 41 495 c 0
34 461 33 426 34 392 c 0
34 30 l 0
30 30 l 0
30 392 l 0
30 427 30 462 37 496 c 0
45 531 59 564 82 590 c 0
105 617 136 637 171 645 c 0
205 652 242 649 274 634 c 0
Z
30 390 m 0
30 394 l 0
274 394 l 0
274 390 l 0
30 390 l 0
Z
Spiro
274 634 v
274 630 v
34 392 [
34 30 v
30 30 v
30 392 ]
30 390 v
30 394 v
274 394 v
274 390 v
0 0 z
EndSpiro
EndSplineSet
        Fore
        SplineSet
301 660 m 0
301 600 l 0
273 619 238 628 204 624 c 0
171 620 139 604 115 579 c 0
92 555 76 523 69 490 c 0
61 458 60 423 61 390 c 0
61 0 l 0
-1 0 l 0
-1 390 l 0
0 432 0 475 9 517 c 0
18 559 37 598 67 629 c 0
96 660 136 681 178 687 c 0
221 693 265 683 301 660 c 0
Z
-1 360 m 0
-1 420 l 0
301 420 l 0
301 360 l 0
-1 360 l 0
Z
Spiro
301 660 v
301 600 v
61 390 [
61 0 v
-1 0 v
-1 390 ]
-1 360 v
-1 420 v
301 420 v
301 360 v
0 0 z
EndSpiro
EndSplineSet
        EndChar
StartChar: i
Encoding: 105 105 0
Width: 373
InSpiro: 1
        Flags: H
        LayerCount: 2
        Back
        SplineSet
149 394 m 0
154 394 l 0
154 30 l 0
149 30 l 0
149 394 l 0
Z
152 505 m 0
153 504 155 505 156 507 c 0
158 508 159 510 159 512 c 0
158 513 158 515 156 516 c 0
155 518 153 518 152 519 c 0
150 519 148 518 147 516 c 0
145 515 145 513 145 512 c 0
144 510 145 508 147 507 c 0
148 505 150 504 152 505 c 0
Z
30 30 m 0
30 34 l 0
274 34 l 0
274 30 l 0
30 30 l 0
Z
30 390 m 0
30 394 l 0
154 394 l 0
154 390 l 0
30 390 l 0
Z
Spiro
149 394 v
154 394 v
154 30 v
149 30 v
152 505 c
159 512 c
152 519 c
145 512 c
30 30 v
30 34 v
274 34 v
274 30 v
30 390 v
30 394 v
154 394 v
154 390 v
0 0 z
EndSpiro
EndSplineSet
        Fore
        SplineSet
118 420 m 0
181 420 l 0
181 0 l 0
150 0 l 0
118 0 l 0
118 420 l 0
Z
150 475 m 0
159 474 168 478 174 485 c 0
181 491 185 500 185 510 c 0
184 519 181 528 174 534 c 0
168 541 159 544 150 545 c 0
140 545 131 541 125 534 c 0
118 528 115 519 115 510 c 0
114 500 118 491 125 485 c 0
131 478 140 474 150 475 c 0
Z
-1 0 m 0
-1 60 l 0
301 60 l 0
301 0 l 0
-1 0 l 0
Z
-1 360 m 0
-1 420 l 0
181 420 l 0
181 360 l 0
-1 360 l 0
Z
Spiro
118 420 v
181 420 v
181 0 v
150 0 c
118 0 v
150 475 c
185 510 c
150 545 c
115 510 c
-1 0 v
-1 60 v
301 60 v
301 0 v
-1 360 v
-1 420 v
181 420 v
181 360 v
0 0 z
EndSpiro
EndSplineSet
        EndChar
StartChar: m
Encoding: 109 109 0
Width: 373
InSpiro: 1
        Flags: H
        LayerCount: 2
        Back
        SplineSet
30 394 m 0
34 394 l 0
34 30 l 0
30 30 l 0
30 394 l 0
Z
34 30 m 0
30 30 l 0
30 291 l 0
18 301 11 317 10 332 c 0
9 348 14 364 23 376 c 0
33 388 47 397 62 400 c 0
78 403 94 400 108 393 c 0
122 384 132 371 139 356 c 0
146 341 149 325 151 309 c 0
155 277 153 244 154 212 c 0
154 30 l 0
149 30 l 0
149 212 l 0
148 244 150 276 147 307 c 0
145 323 142 339 136 354 c 0
129 369 118 382 105 390 c 0
92 397 77 399 62 396 c 0
48 393 35 384 27 373 c 0
18 361 14 346 15 332 c 0
16 317 23 304 34 294 c 0
34 294 l 0
34 30 l 0
Z
154 30 m 0
149 30 l 0
149 242 l 0
149 274 147 307 157 338 c 0
161 353 169 368 182 379 c 0
188 384 195 389 202 391 c 0
210 393 219 394 227 393 c 0
235 391 242 387 249 381 c 0
255 376 260 369 264 361 c 0
272 346 274 329 275 312 c 0
277 279 273 245 274 212 c 0
274 30 l 0
269 30 l 0
269 212 l 0
268 244 272 277 271 310 c 0
271 327 269 344 262 359 c 0
258 366 254 373 247 378 c 0
241 384 234 388 226 390 c 0
218 391 210 390 202 388 c 0
195 385 188 381 183 375 c 0
171 364 164 350 160 335 c 0
152 305 154 273 154 242 c 0
154 30 l 0
Z
Spiro
30 394 v
34 394 v
34 30 v
30 30 v
34 30 v
30 30 v
30 291 v
108 393 c
154 212 [
154 30 v
149 30 v
149 212 ]
105 390 c
34 294 v
34 294 v
154 30 v
149 30 v
149 242 ]
227 393 c
274 212 [
274 30 v
269 30 v
269 212 ]
226 390 c
154 242 [
0 0 z
EndSpiro
EndSplineSet
        Fore
        SplineSet
-1 420 m 0
61 420 l 0
61 0 l 0
-1 0 l 0
-1 420 l 0
Z
61 0 m 0
-1 0 l 0
-1 277 l 0
-15 293 -23 315 -22 337 c 0
-22 359 -14 381 0 398 c 0
14 414 35 425 56 428 c 0
78 431 101 426 120 415 c 0
135 404 148 390 156 373 c 0
165 357 171 339 174 321 c 0
181 284 180 247 181 210 c 0
181 0 l 0
118 0 l 0
118 210 l 0
117 238 122 266 124 295 c 0
125 309 125 324 120 337 c 0
117 344 113 350 108 355 c 0
102 360 96 363 89 364 c 0
83 364 78 363 73 361 c 0
68 358 64 355 61 350 c 0
58 346 57 340 57 335 c 0
56 329 58 324 61 320 c 0
61 320 l 0
61 0 l 0
Z
181 0 m 0
118 0 l 0
118 240 l 0
118 280 117 323 134 360 c 0
142 379 155 396 172 407 c 0
189 418 211 423 231 419 c 0
250 414 266 400 277 383 c 0
287 367 293 347 296 328 c 0
303 289 300 249 301 210 c 0
301 0 l 0
238 0 l 0
238 210 l 0
237 223 238 237 240 251 c 0
241 265 245 278 247 292 c 0
249 306 251 320 247 333 c 0
244 340 241 346 236 351 c 0
231 356 224 359 218 360 c 0
212 360 206 358 201 355 c 0
196 352 192 348 189 343 c 0
182 333 180 321 179 309 c 0
178 286 181 263 181 240 c 0
181 0 l 0
Z
Spiro
-1 420 v
61 420 v
61 0 v
-1 0 v
61 0 v
-1 0 v
-1 277 v
120 415 c
181 210 [
181 0 v
118 0 v
118 210 ]
89 364 c
61 320 v
61 320 v
181 0 v
118 0 v
118 240 ]
231 419 c
301 210 [
301 0 v
238 0 v
238 210 ]
218 360 c
181 240 [
0 0 z
EndSpiro
EndSplineSet
        EndChar
StartChar: n
Encoding: 110 110 0
Width: 373
InSpiro: 1
        Flags: H
        LayerCount: 2
        Back
        SplineSet
30 394 m 0
34 394 l 0
34 30 l 0
30 30 l 0
30 394 l 0
Z
34 30 m 0
30 30 l 0
30 292 l 0
32 326 51 360 81 379 c 0
110 399 148 404 182 393 c 0
199 387 215 377 228 364 c 0
241 351 251 336 258 319 c 0
272 285 274 248 274 212 c 0
274 30 l 0
269 30 l 0
269 212 l 0
269 247 267 284 254 316 c 0
247 333 237 348 225 361 c 0
213 374 197 384 181 390 c 0
148 401 111 396 82 377 c 0
54 358 35 325 34 291 c 0
34 30 l 0
Z
Spiro
30 394 v
34 394 v
34 30 v
30 30 v
34 30 v
30 30 v
30 292 v
182 393 c
274 212 [
274 30 v
269 30 v
269 212 ]
181 390 c
34 291 v
0 0 z
EndSpiro
EndSplineSet
        Fore
        SplineSet
-1 420 m 0
61 420 l 0
61 0 l 0
-1 0 l 0
-1 420 l 0
Z
61 0 m 0
-1 0 l 0
-1 290 l 0
2 334 26 376 63 400 c 0
99 425 148 431 190 418 c 0
230 404 263 373 281 334 c 0
299 296 301 252 301 210 c 0
301 0 l 0
238 0 l 0
238 210 l 0
238 239 237 269 227 297 c 0
222 311 215 324 205 336 c 0
195 347 182 355 169 361 c 0
145 369 117 366 96 352 c 0
75 338 62 314 61 289 c 0
61 0 l 0
Z
Spiro
-1 420 v
61 420 v
61 0 v
-1 0 v
61 0 v
-1 0 v
-1 290 v
190 418 c
301 210 [
301 0 v
238 0 v
238 210 ]
169 361 c
61 289 v
0 0 z
EndSpiro
EndSplineSet
        EndChar
StartChar: r
Encoding: 114 114 0
Width: 373
InSpiro: 1
        Flags: H
        LayerCount: 2
        Back
        SplineSet
34 30 m 0
30 30 l 0
30 394 l 0
34 394 l 0
34 30 l 0
Z
34 340 m 0
30 340 l 0
46 363 70 382 97 391 c 0
124 401 154 401 182 393 c 0
205 385 226 372 242 354 c 0
258 336 269 313 274 290 c 0
269 290 l 0
264 312 254 334 238 352 c 0
223 369 203 382 181 390 c 0
154 398 125 398 99 389 c 0
72 380 49 362 34 340 c 0
Z
Spiro
34 30 v
30 30 v
30 394 v
34 394 v
34 340 v
30 340 v
182 393 c
274 290 v
269 290 v
181 390 c
0 0 z
EndSpiro
EndSplineSet
        Fore
        SplineSet
61 0 m 0
-1 0 l 0
-1 420 l 0
61 420 l 0
61 0 l 0
Z
61 310 m 0
-1 310 l 0
9 349 36 383 71 403 c 0
106 423 149 428 189 418 c 0
222 408 252 387 272 358 c 0
293 330 303 294 301 260 c 0
238 260 l 0
240 281 235 304 222 323 c 0
210 341 191 355 170 361 c 0
148 366 125 364 106 355 c 0
86 346 70 329 61 310 c 0
Z
Spiro
61 0 v
-1 0 v
-1 420 v
61 420 v
61 310 v
-1 310 v
189 418 c
301 260 v
238 260 v
170 361 c
0 0 z
EndSpiro
EndSplineSet
        EndChar
StartChar: w
Encoding: 119 119 0
Width: 373
InSpiro: 1
        Flags: H
        LayerCount: 2
        Back
        SplineSet
30 394 m 0
34 394 l 0
92 44 l 0
149 394 l 0
154 394 l 0
212 44 l 0
269 394 l 0
274 394 l 0
214 30 l 0
209 30 l 0
152 379 l 0
94 30 l 0
89 30 l 0
30 394 l 0
Z
Spiro
30 394 v
34 394 v
92 44 v
149 394 v
154 394 v
212 44 v
269 394 v
274 394 v
214 30 v
209 30 v
152 379 v
94 30 v
89 30 v
0 0 z
EndSpiro
EndSplineSet
        Fore
        SplineSet
-1 420 m 0
61 420 l 0
90 212 l 0
118 420 l 0
181 420 l 0
210 212 l 0
238 420 l 0
301 420 l 0
241 0 l 0
178 0 l 0
150 207 l 0
121 0 l 0
58 0 l 0
-1 420 l 0
Z
Spiro
-1 420 v
61 420 v
90 212 v
118 420 v
181 420 v
210 212 v
238 420 v
301 420 v
241 0 v
178 0 v
150 207 v
121 0 v
58 0 v
0 0 z
EndSpiro
EndSplineSet
        EndChar
StartChar: x
Encoding: 120 120 0
Width: 373
InSpiro: 1
        Flags: H
        LayerCount: 2
        Back
        SplineSet
30 394 m 0
34 394 l 0
274 30 l 0
269 30 l 0
30 394 l 0
Z
269 394 m 0
274 394 l 0
34 30 l 0
30 30 l 0
269 394 l 0
Z
Spiro
30 394 v
34 394 v
274 30 v
269 30 v
269 394 v
274 394 v
34 30 v
30 30 v
0 0 z
EndSpiro
EndSplineSet
        Fore
        SplineSet
-1 420 m 0
61 420 l 0
301 0 l 0
238 0 l 0
-1 420 l 0
Z
238 420 m 0
301 420 l 0
61 0 l 0
-1 0 l 0
238 420 l 0
Z
Spiro
-1 420 v
61 420 v
301 0 v
238 0 v
238 420 v
301 420 v
61 0 v
-1 0 v
0 0 z
EndSpiro
EndSplineSet
        EndChar
StartChar: £
Encoding: 163 163 0
Width: 373
InSpiro: 1
        Flags: H
        LayerCount: 2
        Back
        SplineSet
274 530 m 0
269 530 l 0
274 545 274 562 270 578 c 0
265 594 256 608 244 619 c 0
231 630 216 636 199 638 c 0
183 640 166 637 152 630 c 0
128 617 111 594 102 569 c 0
93 544 90 517 90 491 c 0
89 438 94 385 94 332 c 0
94 30 l 0
89 30 l 0
89 332 l 0
89 385 84 439 86 493 c 0
87 520 90 547 100 572 c 0
110 597 127 620 151 633 c 0
166 640 183 644 200 642 c 0
217 640 233 633 246 622 c 0
259 611 269 596 274 580 c 0
279 564 279 546 274 530 c 0
Z
30 30 m 0
30 34 l 0
274 34 l 0
274 30 l 0
30 30 l 0
Z
30 330 m 0
30 334 l 0
154 334 l 0
154 330 l 0
30 330 l 0
Z
Spiro
274 530 v
269 530 v
152 630 c
94 332 [
94 30 v
89 30 v
89 332 ]
151 633 c
30 30 v
30 34 v
274 34 v
274 30 v
30 330 v
30 334 v
154 334 v
154 330 v
0 0 z
EndSpiro
EndSplineSet
        Fore
        SplineSet
301 500 m 0
238 500 l 0
247 510 254 525 254 539 c 0
255 554 251 569 242 581 c 0
234 593 221 602 207 606 c 0
193 610 177 608 164 603 c 0
152 598 143 590 135 580 c 0
128 570 122 559 119 548 c 0
112 524 111 500 113 475 c 0
115 427 121 378 121 330 c 0
121 0 l 0
58 0 l 0
58 330 l 0
58 388 55 446 60 504 c 0
63 533 69 562 80 589 c 0
92 615 110 640 135 656 c 0
156 669 183 676 209 674 c 0
235 671 259 660 278 642 c 0
297 624 310 600 314 575 c 0
318 549 313 522 301 500 c 0
Z
-1 0 m 0
-1 60 l 0
301 60 l 0
301 0 l 0
-1 0 l 0
Z
-1 300 m 0
-1 360 l 0
181 360 l 0
181 300 l 0
-1 300 l 0
Z
Spiro
301 500 v
238 500 v
164 603 c
121 330 [
121 0 v
58 0 v
58 330 ]
135 656 c
-1 0 v
-1 60 v
301 60 v
301 0 v
-1 300 v
-1 360 v
181 360 v
181 300 v
0 0 z
EndSpiro
EndSplineSet
        EndChar
